:version 1.10
:name ASF
:units
  mass 1
  length 1
  angle deg
:documentation
  ASF file generated by Kaydara
:root
  axis xyz
  order  tx ty tz rx ry rz
  position 0 0 0
  orientation 0 0 0
:bonedata
  begin
    id 1
    name RightUpLegDummy
    direction -0.718183 -0.695806 0.00816078
    length 4.904
    axis 0 0 0 xyz
  end
  begin
    id 2
    name RightUpLeg
    direction -0.0736652 -0.994202 0.0783343
    length 17.4976
    axis -2.72909 -3.00389 -4.00133 xyz
    dof rx ry rz
  end
  begin
    id 3
    name RightLeg
    direction -0.0389037 -0.994596 -0.0962598
    length 16.5821
    axis 3.95836 -18.5909 -4.46993 xyz
    dof rx ry rz
  end
  begin
    id 4
    name RightFoot
    direction -0.311643 -0.412678 0.855906
    length 3.77069
    axis -1.99483 -18.8351 -3.27644 xyz
    dof rx ry rz
  end
  begin
    id 5
    name RightToes
    direction -0.317852 0.0389852 0.947339
    length 3.85082
    axis -2.00228 -18.1713 -3.25211 xyz
    dof rx ry rz
  end
  begin
    id 6
    name SpineDummy
    direction 8.3039e-015 1 4.44677e-016
    length 4.6813
    axis 0 0 0 xyz
  end
  begin
    id 7
    name Spine
    direction -0.000262373 0.999988 0.00493267
    length 10.1015
    axis -0.00246081 0.00062579 0.0150362 xyz
    dof rx ry rz
  end
  begin
    id 8
    name Spine1
    direction 0 0 0
    length 0
    axis -0.00349562 0.000650293 0.0196666 xyz
    dof rx ry rz
  end
  begin
    id 9
    name HEadDummy
    direction -0.000343232 0.999999 0.00123745
    length 3.43865
    axis -0.00349562 0.000650293 0.0196666 xyz
  end
  begin
    id 10
    name HEad
    direction -0.0461221 0.980933 0.188796
    length 5.12695
    axis -0.00351404 -7.04812 0.0199272 xyz
    dof rx ry rz
  end
  begin
    id 11
    name LeftShoulder1Dummy
    direction 0.998904 -0.0399089 -0.0244534
    length 3.5433
    axis -0.00349562 0.000650293 0.0196666 xyz
  end
  begin
    id 12
    name LeftShoulder1
    direction 0.99951 1.64443e-005 0.0312999
    length 4.05031
    axis -0.00349562 0.000650293 0.0196666 xyz
    dof rx ry rz
  end
  begin
    id 13
    name LeftArm
    direction 0.984791 0.0515299 0.165927
    length 12.9126
    axis -64.823 -10.7743 5.20463 xyz
    dof rx ry rz
  end
  begin
    id 14
    name LeftForeArm
    direction 0.984968 0.0534808 0.16425
    length 10.8596
    axis -30.0462 -7.70601 1.87451 xyz
    dof rx ry rz
  end
  begin
    id 15
    name LeftHand
    direction 0.975871 0.0289682 0.216418
    length 6.62295
    axis -20.1348 -6.98077 1.86072 xyz
    dof rx ry rz
  end
  begin
    id 16
    name RightShoulderDummy
    direction -0.998877 -0.0405946 -0.0244307
    length 3.5433
    axis -0.00349562 0.000650293 0.0196666 xyz
  end
  begin
    id 17
    name RightShoulder
    direction -0.998933 -0.0249743 -0.0388558
    length 4.05031
    axis -0.0205316 -4.02113 1.41395 xyz
    dof rx ry rz
  end
  begin
    id 18
    name RightArm
    direction -0.997559 0.068664 0.0127103
    length 12.9638
    axis -67.3882 1.84188 -6.15987 xyz
    dof rx ry rz
  end
  begin
    id 19
    name RightForeArm
    direction -0.991508 0.0912848 0.0926241
    length 10.8312
    axis -22.1975 3.41087 -4.28711 xyz
    dof rx ry rz
  end
  begin
    id 20
    name RightHand
    direction -0.989262 0.0600788 0.133232
    length 6.57864
    axis -12.2911 2.17515 -4.39675 xyz
    dof rx ry rz
  end
  begin
    id 21
    name LeftUpLegDummy
    direction 0.718183 -0.695806 0.00816078
    length 4.904
    axis 0 0 0 xyz
  end
  begin
    id 22
    name LeftUpLeg
    direction 0.0831398 -0.99469 0.0606531
    length 17.4976
    axis -1.71016 2.29552 4.63832 xyz
    dof rx ry rz
  end
  begin
    id 23
    name LeftLeg
    direction 0.0498442 -0.991778 -0.117862
    length 16.5821
    axis 5.13757 15.5727 5.13348 xyz
    dof rx ry rz
  end
  begin
    id 24
    name LeftFoot
    direction 0.269026 -0.433896 0.85986
    length 3.77069
    axis -0.576502 15.6961 4.10267 xyz
    dof rx ry rz
  end
  begin
    id 25
    name LeftToes
    direction 0.277311 0.0251143 0.960452
    length 3.85048
    axis -0.576502 15.6961 4.10267 xyz
    dof rx ry rz
  end
:hierarchy
  begin
    root RightUpLegDummy SpineDummy LeftUpLegDummy
    RightUpLegDummy RightUpLeg
    RightUpLeg RightLeg
    RightLeg RightFoot
    RightFoot RightToes
    SpineDummy Spine
    Spine Spine1
    Spine1 HEadDummy LeftShoulder1Dummy RightShoulderDummy
    HEadDummy HEad
    LeftShoulder1Dummy LeftShoulder1
    LeftShoulder1 LeftArm
    LeftArm LeftForeArm
    LeftForeArm LeftHand
    RightShoulderDummy RightShoulder
    RightShoulder RightArm
    RightArm RightForeArm
    RightForeArm RightHand
    LeftUpLegDummy LeftUpLeg
    LeftUpLeg LeftLeg
    LeftLeg LeftFoot
    LeftFoot LeftToes
  end

:SAMPLES-PER-SECOND 30
:FULLY-SPECIFIED
:DEGREES
142
root  7.97901 40.1423 -83.8103 178.521 4.10931 179.691
RightUpLeg  0.273702 0.693927 2.93887
RightLeg  1.36991 -0.672942 0.806341
RightFoot  0.0133272 0.512793 -4.48924
RightToes  3.97569e-016 -3.18055e-015 -2.98177e-016
Spine  2.0131 -1.77715 -1.48517
Spine1  0.736821 -1.81387 0.260947
HEad  10.7305 7.1187 1.19212
LeftShoulder1  -3.88251e-019 9.70628e-020 -3.87848e-018
LeftArm  -22.3689 65.667 -52.3488
LeftForeArm  -29.1546 -26.8144 4.24453
LeftHand  -0.0578883 0.463268 1.49659
RightShoulder  8.17688 10.7559 38.2472
RightArm  13.0071 -49.8623 3.04042
RightForeArm  -17.4068 17.6778 -7.52151
RightHand  -0.445871 -2.04196 -14.8021
LeftUpLeg  -0.280752 -2.61475 -3.96167
LeftLeg  1.81532 5.48669 0.985968
LeftFoot  -0.205734 -0.444609 3.93169
LeftToes  5.30048e-011 -3.04284e-011 -3.73785e-011
143
root  7.97602 40.1411 -83.8592 178.439 5.25398 179.739
RightUpLeg  0.39055 0.835704 3.03666
RightLeg  1.16756 0.314368 0.830879
RightFoot  0.0293064 0.48674 -4.2599
RightToes  3.97569e-016 -3.18055e-015 -2.98177e-016
Spine  2.16905 -1.54508 -1.35955
Spine1  1.06562 -1.56659 0.147361
HEad  9.98648 7.09911 1.85623
LeftShoulder1  -3.88251e-019 9.70628e-020 -3.87848e-018
LeftArm  -26.7461 65.1689 -56.5845
LeftForeArm  -29.2672 -24.1632 3.55786
LeftHand  -0.0776605 0.920104 2.10568
RightShoulder  8.18817 10.7749 38.2588
RightArm  11.7406 -49.5543 6.55745
RightForeArm  -17.1746 18.3387 -8.10088
RightHand  -0.494756 -1.55838 -14.4481
LeftUpLeg  -0.0349782 -2.49139 -3.89971
LeftLeg  1.94166 6.51697 1.02274
LeftFoot  -0.383453 -0.422619 3.78565
LeftToes  5.30048e-011 -3.04284e-011 -3.73785e-011
144
root  7.9615 40.1371 -83.9149 178.379 6.22914 179.787
RightUpLeg  0.427879 0.935456 3.12559
RightLeg  1.22434 1.1873 0.752596
RightFoot  0.0270876 0.491087 -4.29854
RightToes  3.97569e-016 -3.18055e-015 -2.98177e-016
Spine  2.05565 -1.20854 -1.02568
Spine1  1.5923 -1.1695 -0.112089
HEad  9.4917 6.66882 2.31003
LeftShoulder1  -3.88251e-019 9.70628e-020 -3.87848e-018
LeftArm  -28.7461 64.016 -59.8666
LeftForeArm  -27.8975 -21.2811 2.72335
LeftHand  -0.156575 0.391319 3.93703
RightShoulder  8.32507 10.8593 38.7311
RightArm  11.1723 -48.6638 9.05616
RightForeArm  -13.3427 18.8279 -8.68141
RightHand  -0.653341 -0.224554 -14.3083
LeftUpLeg  0.189506 -2.42578 -3.86801
LeftLeg  2.05568 7.43231 1.05974
LeftFoot  -0.624219 -0.410047 3.73815
LeftToes  5.30048e-011 -3.04284e-011 -3.73785e-011
145
root  7.94311 40.131 -83.9796 178.535 7.05272 179.862
RightUpLeg  0.277937 1.04849 3.2264
RightLeg  1.29323 1.87754 0.68712
RightFoot  -0.0452205 0.49644 -4.36645
RightToes  3.97569e-016 -3.18055e-015 -2.98177e-016
Spine  1.60856 -0.839018 -0.650921
Spine1  2.10181 -0.74256 -0.316968
HEad  9.62579 6.08835 2.48688
LeftShoulder1  -3.88251e-019 9.70628e-020 -3.87848e-018
LeftArm  -29.6688 62.7524 -62.4179
LeftForeArm  -25.7442 -18.6546 1.68563
LeftHand  -0.23705 0.0361583 5.63041
RightShoulder  8.50869 10.9655 39.3725
RightArm  10.9948 -47.4549 10.8028
RightForeArm  -7.98283 19.1772 -9.21938
RightHand  -0.797652 1.06302 -14.0848
LeftUpLeg  0.136017 -2.34254 -3.78847
LeftLeg  2.26023 8.13642 1.08975
LeftFoot  -0.933885 -0.392499 3.66132
LeftToes  5.30048e-011 -3.04284e-011 -3.73785e-011
146
root  7.92727 40.1263 -84.0392 178.757 7.64598 179.965
RightUpLeg  0.174584 1.14926 3.32454
RightLeg  1.09891 2.33893 0.749537
RightFoot  -0.0408443 0.489856 -4.31733
RightToes  3.97569e-016 -3.18055e-015 -2.98177e-016
Spine  1.24339 -0.551928 -0.411662
Spine1  2.34183 -0.444911 -0.32935
HEad  10.168 5.54556 2.34864
LeftShoulder1  -3.88251e-019 9.70628e-020 -3.87848e-018
LeftArm  -30.5807 61.7998 -64.6627
LeftForeArm  -22.5501 -16.6907 0.866539
LeftHand  -0.242571 0.0723133 5.77406
RightShoulder  8.61259 11.0263 39.7293
RightArm  10.767 -46.1469 12.4095
RightForeArm  -3.05556 19.1587 -9.38558
RightHand  -0.81649 1.62007 -13.3003
LeftUpLeg  -0.0480818 -2.20937 -3.65483
LeftLeg  2.52342 8.53681 1.11429
LeftFoot  -1.22487 -0.37319 3.55877
LeftToes  5.30048e-011 -3.04284e-011 -3.73785e-011
147
root  7.90856 40.1242 -84.0819 178.837 8.00746 -179.978
RightUpLeg  0.155718 1.19055 3.35936
RightLeg  1.00821 2.6463 0.779104
RightFoot  -0.0126374 0.481636 -4.25489
RightToes  3.97569e-016 -3.18055e-015 -2.98177e-016
Spine  1.32669 -0.354455 -0.204282
Spine1  2.1945 -0.240409 -0.362979
HEad  10.2763 4.97925 2.20334
LeftShoulder1  -3.88251e-019 9.70628e-020 -3.87848e-018
LeftArm  -31.4827 61.2012 -66.7199
LeftForeArm  -18.5783 -15.4936 0.453855
LeftHand  -0.20501 0.0312643 4.84998
RightShoulder  8.5753 11.0071 39.5952
RightArm  10.3862 -45.0772 14.0858
RightForeArm  -0.406334 18.8562 -9.15314
RightHand  -0.767552 1.66226 -12.4432
LeftUpLeg  -0.0559826 -2.13488 -3.60252
LeftLeg  2.6296 8.78784 1.11286
LeftFoot  -1.41072 -0.365359 3.53403
LeftToes  5.30048e-011 -3.04284e-011 -3.73785e-011
148
root  7.88057 40.1229 -84.1091 178.814 8.1969 -179.998
RightUpLeg  0.0749555 1.19039 3.31502
RightLeg  1.26005 2.84952 0.671173
RightFoot  -0.102531 0.477925 -4.23999
RightToes  3.97569e-016 -3.18055e-015 -2.98177e-016
Spine  1.68283 -0.177005 0.164263
Spine1  1.86553 -0.00297823 -0.688135
HEad  10.3457 4.51992 2.15717
LeftShoulder1  -3.88251e-019 9.70628e-020 -3.87848e-018
LeftArm  -32.3408 60.7086 -68.6118
LeftForeArm  -15.4091 -14.8396 0.256805
LeftHand  -0.192607 -0.194672 4.37116
RightShoulder  8.4594 10.9429 39.1879
RightArm  9.8722 -44.5348 15.5832
RightForeArm  -0.578969 18.7884 -9.04344
RightHand  -0.753197 1.63241 -12.2619
LeftUpLeg  0.0770113 -2.18531 -3.69436
LeftLeg  2.54937 9.04047 1.10905
LeftFoot  -1.4962 -0.36723 3.57222
LeftToes  5.30048e-011 -3.04284e-011 -3.73785e-011
149
root  7.84793 40.1218 -84.1305 178.822 8.16098 179.978
RightUpLeg  -0.0237164 1.17742 3.24914
RightLeg  1.4918 2.83981 0.577064
RightFoot  -0.224979 0.474361 -4.22524
RightToes  3.97569e-016 -3.18055e-015 -2.98177e-016
Spine  1.95293 -0.0405913 0.60762
Spine1  1.66534 0.212069 -1.13652
HEad  10.1909 4.07286 2.24598
LeftShoulder1  -3.88251e-019 9.70628e-020 -3.87848e-018
LeftArm  -33.3756 60.1298 -70.4398
LeftForeArm  -14.2464 -14.4013 0.116246
LeftHand  -0.221212 -0.40609 4.83332
RightShoulder  8.34665 10.881 38.7864
RightArm  9.52885 -44.3128 16.6659
RightForeArm  -2.22575 19.1278 -9.29872
RightHand  -0.7841 1.68161 -12.6759
LeftUpLeg  0.129436 -2.27609 -3.81679
LeftLeg  2.46534 9.14125 1.13665
LeftFoot  -1.54057 -0.365764 3.55678
LeftToes  5.30048e-011 -3.04284e-011 -3.73785e-011
150
root  7.81908 40.122 -84.1564 178.861 7.82167 179.991
RightUpLeg  0.00659738 1.12222 3.19023
RightLeg  1.46269 2.54674 0.607506
RightFoot  -0.262123 0.467826 -4.18414
RightToes  3.97569e-016 -3.18055e-015 -2.98177e-016
Spine  2.04241 -0.0205389 0.837139
Spine1  1.71048 0.253644 -1.2834
HEad  9.7986 3.5684 2.31615
LeftShoulder1  -3.88251e-019 9.70628e-020 -3.87848e-018
LeftArm  -34.4754 59.4942 -72.1616
LeftForeArm  -14.3574 -14.0348 -0.0424562
LeftHand  -0.274258 -0.64667 5.74385
RightShoulder  8.27074 10.8445 38.5019
RightArm  9.55649 -44.0708 17.2945
RightForeArm  -3.56282 19.6519 -9.736
RightHand  -0.802732 1.61223 -13.1001
LeftUpLeg  0.103454 -2.33048 -3.87626
LeftLeg  2.42874 8.89796 1.15656
LeftFoot  -1.57321 -0.355299 3.44656
LeftToes  5.30048e-011 -3.04284e-011 -3.73785e-011
151
root  7.79581 40.1241 -84.1897 178.89 7.29138 179.991
RightUpLeg  0.111984 1.00748 3.10234
RightLeg  1.39921 2.12426 0.670085
RightFoot  -0.298545 0.457023 -4.10918
RightToes  3.97569e-016 -3.18055e-015 -2.98177e-016
Spine  2.02132 -0.0867669 0.748058
Spine1  1.90521 0.140643 -1.03554
HEad  9.3228 3.10711 2.26533
LeftShoulder1  -3.88251e-019 9.70628e-020 -3.87848e-018
LeftArm  -35.1412 58.9253 -73.5716
LeftForeArm  -14.1183 -13.8251 -0.297962
LeftHand  -0.3291 -0.920307 6.58398
RightShoulder  8.24146 10.8357 38.3797
RightArm  9.92653 -43.6224 17.4904
RightForeArm  -4.16401 19.9972 -10.0063
RightHand  -0.810707 1.4478 -13.5339
LeftUpLeg  0.113751 -2.37405 -3.91919
LeftLeg  2.33816 8.43678 1.11144
LeftFoot  -1.5888 -0.344159 3.32925
LeftToes  5.30048e-011 -3.04284e-011 -3.73785e-011
152
root  7.77611 40.1263 -84.2239 178.953 6.79549 179.956
RightUpLeg  0.147135 0.897713 2.98987
RightLeg  1.43305 1.76428 0.684506
RightFoot  -0.402725 0.442372 -3.99819
RightToes  3.97569e-016 -3.18055e-015 -2.98177e-016
Spine  1.94011 -0.124028 0.538012
Spine1  2.08714 0.0392093 -0.68541
HEad  8.92661 2.75728 2.14696
LeftShoulder1  -3.88251e-019 9.70628e-020 -3.87848e-018
LeftArm  -35.2782 58.5083 -74.6413
LeftForeArm  -12.6574 -13.9295 -0.590379
LeftHand  -0.353664 -1.00954 6.96832
RightShoulder  8.24509 10.84 38.3875
RightArm  10.386 -43.0319 17.3492
RightForeArm  -4.50949 20.0045 -9.95827
RightHand  -0.858678 1.49392 -14.2317
LeftUpLeg  0.126533 -2.42225 -3.98477
LeftLeg  2.18316 8.02888 1.01887
LeftFoot  -1.58932 -0.342364 3.31035
LeftToes  5.30048e-011 -3.04284e-011 -3.73785e-011
153
root  7.7606 40.1295 -84.2535 179.059 6.42934 179.943
RightUpLeg  0.142516 0.868668 2.92891
RightLeg  1.39294 1.46862 0.690963
RightFoot  -0.465744 0.430684 -3.90724
RightToes  3.97569e-016 -3.18055e-015 -2.98177e-016
Spine  1.79354 -0.0957513 0.453564
Spine1  2.27549 0.032465 -0.515648
HEad  8.62741 2.49692 2.05291
LeftShoulder1  -3.88251e-019 9.70628e-020 -3.87848e-018
LeftArm  -35.2807 58.2357 -75.4907
LeftForeArm  -10.3128 -14.3657 -0.739557
LeftHand  -0.334381 -0.897699 6.70795
RightShoulder  8.2668 10.8498 38.4708
RightArm  10.5542 -42.4475 17.0728
RightForeArm  -4.68622 19.7613 -9.68722
RightHand  -0.929034 1.73439 -14.8906
LeftUpLeg  0.0905281 -2.4345 -4.02168
LeftLeg  2.04004 7.74649 0.934845
LeftFoot  -1.58975 -0.348982 3.38004
LeftToes  5.30048e-011 -3.04284e-011 -3.73785e-011
